#!OML:ASF E:\Style3\Style3.ASF
:FULLY-SPECIFIED
:DEGREES
3185
root -1.8401 17.5588 1.98367 -1290.12 91.6078 -1313.89
lowerback 23.7086 0.342199 -8.17691
upperback 16.0973 0.666588 -1.64792
thorax 4.81366 0.375298 2.73567
lowerneck -4.40879 -13.7613 -9.03949
upperneck 19.5281 -21.6557 20.573
head 10.3627 -9.30923 6.00147
rclavicle -2.22639e-014 -2.98177e-014
rhumerus 87.4972 20.9706 -4.70349
rradius 32.3753
rwrist 6.37696
rhand 16.2442 17.0575
rfingers 7.12502
rthumb 41.0215 -7.85209
lclavicle -2.22639e-014 -2.98177e-014
lhumerus 16.9681 -60.4111 82.0181
lradius 124.425
lwrist 80.1115
lhand -34.4892 33.1493
lfingers 7.12502
lthumb -7.65174 62.9908
rfemur -44.943 3.4429 19.6536
rtibia 33.8226
rfoot -9.92939 -11.0219
rtoes -21.0021
lfemur -36.3395 -3.59935 -7.27585
ltibia 21.4688
lfoot -4.26433 26.852
ltoes -26.272
3186
root -1.82708 17.5622 1.9804 -1309.72 91.2332 -1333.52
lowerback 23.6901 0.564801 -8.31861
upperback 16.2721 0.973692 -1.4018
thorax 5.00234 0.503599 3.02791
lowerneck -4.52507 -13.9268 -8.90249
upperneck 19.5594 -21.88 20.5025
head 10.4115 -9.39891 5.90643
rclavicle 3.97569e-015 2.94201e-014
rhumerus 87.2541 20.9346 -4.26428
rradius 32.774
rwrist 3.93843
rhand 16.4301 17.1225
rfingers 7.12502
rthumb 41.196 -7.73122
lclavicle 3.97569e-015 2.94201e-014
lhumerus 17.914 -60.615 81.4225
lradius 124.198
lwrist 80.2455
lhand -34.1462 32.8869
lfingers 7.12502
lthumb -7.32073 62.7402
rfemur -44.824 3.21331 19.5796
rtibia 33.7725
rfoot -9.94684 -11.3946
rtoes -21.5256
lfemur -36.4541 -3.71097 -7.37363
ltibia 21.2869
lfoot -4.11416 26.5027
ltoes -26.0877
3187
root -1.81655 17.5719 1.9712 -1336.17 91.1903 -1359.95
lowerback 23.8522 0.76926 -8.28739
upperback 16.3921 1.2602 -1.16124
thorax 5.03208 0.641165 3.21863
lowerneck -4.61642 -14.0533 -8.7814
upperneck 19.5054 -22.039 20.4501
head 10.4161 -9.46485 5.83184
rclavicle -4.6118e-014 -5.4467e-014
rhumerus 86.8945 20.7923 -3.529
rradius 33.4361
rwrist 1.31962
rhand 16.6569 17.4006
rfingers 7.12502
rthumb 41.4089 -7.38445
lclavicle -4.6118e-014 -5.4467e-014
lhumerus 18.6403 -60.8758 81.044
lradius 123.997
lwrist 80.2034
lhand -33.7725 32.719
lfingers 7.12502
lthumb -6.95996 62.5845
rfemur -44.6026 3.04167 19.5862
rtibia 33.6511
rfoot -9.93255 -11.7057
rtoes -21.6694
lfemur -36.4738 -3.93172 -7.35184
ltibia 21.1729
lfoot -3.86062 26.2072
ltoes -26.5331
3188
root -1.81193 17.5799 1.95799 -1357.02 91.414 -1380.93
lowerback 23.8522 0.76926 -8.28739
upperback 16.3921 1.2602 -1.16124
thorax 5.03208 0.641165 3.21863
lowerneck -4.61642 -14.0533 -8.7814
upperneck 19.5054 -22.039 20.4501
head 10.4161 -9.46485 5.83184
rclavicle -4.6118e-014 -5.4467e-014
rhumerus 86.8945 20.7923 -3.529
rradius 33.4361
rwrist 1.31962
rhand 16.6569 17.4006
rfingers 7.12502
rthumb 41.4089 -7.38445
lclavicle -4.6118e-014 -5.4467e-014
lhumerus 18.6403 -60.8758 81.044
lradius 123.997
lwrist 80.2034
lhand -33.7725 32.719
lfingers 7.12502
lthumb -6.95996 62.5845
rfemur -44.5635 2.879 19.6346
rtibia 33.477
rfoot -9.84459 -11.9939
rtoes -21.7707
lfemur -36.743 -4.14216 -7.2577
ltibia 21.1788
lfoot -3.48499 25.9553
ltoes -27.5051
3189
root -1.80963 17.5836 1.94223 -1369.01 91.6976 -1393.04
lowerback 23.8522 0.76926 -8.28739
upperback 16.3921 1.2602 -1.16124
thorax 5.03208 0.641165 3.21863
lowerneck -4.61642 -14.0533 -8.7814
upperneck 19.5054 -22.039 20.4501
head 10.4161 -9.46485 5.83184
rclavicle -4.6118e-014 -5.4467e-014
rhumerus 86.8945 20.7923 -3.529
rradius 33.4361
rwrist 1.31962
rhand 16.6569 17.4006
rfingers 7.12502
rthumb 41.4089 -7.38445
lclavicle -4.6118e-014 -5.4467e-014
lhumerus 18.6403 -60.8758 81.044
lradius 123.997
lwrist 80.2034
lhand -33.7725 32.719
lfingers 7.12502
lthumb -6.95996 62.5845
rfemur -44.5368 2.72202 19.662
rtibia 33.2852
rfoot -9.80211 -12.1965
rtoes -21.782
lfemur -37.0818 -4.23584 -7.22976
ltibia 21.2856
lfoot -3.12865 25.7064
ltoes -28.3934
3190
root -1.80389 17.5865 1.92283 -1375.75 91.9501 -1399.78
lowerback 23.8522 0.76926 -8.28739
upperback 16.3921 1.2602 -1.16124
thorax 5.03208 0.641165 3.21863
lowerneck -4.61642 -14.0533 -8.7814
upperneck 19.5054 -22.039 20.4501
head 10.4161 -9.46485 5.83184
rclavicle -4.6118e-014 -5.4467e-014
rhumerus 86.8945 20.7923 -3.529
rradius 33.4361
rwrist 1.31962
rhand 16.6569 17.4006
rfingers 7.12502
rthumb 41.4089 -7.38445
lclavicle -4.6118e-014 -5.4467e-014
lhumerus 18.6403 -60.8758 81.044
lradius 123.997
lwrist 80.2034
lhand -33.7725 32.719
lfingers 7.12502
lthumb -6.95996 62.5845
rfemur -44.3837 2.612 19.6458
rtibia 33.1128
rfoot -9.77316 -12.3851
rtoes -21.7139
lfemur -37.2581 -4.29923 -7.28931
ltibia 21.4403
lfoot -3.44515 25.6416
ltoes -27.4296
3191
root -1.7973 17.5896 1.90029 -1378.21 92.2302 -1402.17
lowerback 23.8522 0.76926 -8.28739
upperback 16.3921 1.2602 -1.16124
thorax 5.03208 0.641165 3.21863
lowerneck -4.61642 -14.0533 -8.7814
upperneck 19.5054 -22.039 20.4501
head 10.4161 -9.46485 5.83184
rclavicle -4.6118e-014 -5.4467e-014
rhumerus 86.8945 20.7923 -3.529
rradius 33.4361
rwrist 1.31962
rhand 16.6569 17.4006
rfingers 7.12502
rthumb 41.4089 -7.38445
lclavicle -4.6118e-014 -5.4467e-014
lhumerus 18.6403 -60.8758 81.044
lradius 123.997
lwrist 80.2034
lhand -33.7725 32.719
lfingers 7.12502
lthumb -6.95996 62.5845
rfemur -44.1605 2.52595 19.7227
rtibia 32.9622
rfoot -9.67595 -12.5267
rtoes -21.8109
lfemur -37.3442 -4.35565 -7.27284
ltibia 21.5969
lfoot -4.14199 25.739
ltoes -25.516
3192
root -1.79255 17.5903 1.88113 -1377.24 92.4394 -1401.15
lowerback 23.8522 0.76926 -8.28739
upperback 16.3921 1.2602 -1.16124
thorax 5.03208 0.641165 3.21863
lowerneck -4.61642 -14.0533 -8.7814
upperneck 19.5054 -22.039 20.4501
head 10.4161 -9.46485 5.83184
rclavicle -4.6118e-014 -5.4467e-014
rhumerus 86.8945 20.7923 -3.529
rradius 33.4361
rwrist 1.31962
rhand 16.6569 17.4006
rfingers 7.12502
rthumb 41.4089 -7.38445
lclavicle -4.6118e-014 -5.4467e-014
lhumerus 18.6403 -60.8758 81.044
lradius 123.997
lwrist 80.2034
lhand -33.7725 32.719
lfingers 7.12502
lthumb -6.95996 62.5845
rfemur -44.0033 2.58162 19.8124
rtibia 32.8348
rfoot -9.60616 -12.6625
rtoes -21.8219
lfemur -37.4544 -4.24213 -7.21194
ltibia 21.7852
lfoot -5.24266 25.7449
ltoes -22.8456
3193
root -1.7888 17.5931 1.8635 -1374.74 92.6101 -1398.58
lowerback 23.8522 0.76926 -8.28739
upperback 16.3921 1.2602 -1.16124
thorax 5.03208 0.641165 3.21863
lowerneck -4.61642 -14.0533 -8.7814
upperneck 19.5054 -22.039 20.4501
head 10.4161 -9.46485 5.83184
rclavicle -4.6118e-014 -5.4467e-014
rhumerus 86.8945 20.7923 -3.529
rradius 33.4361
rwrist 1.31962
rhand 16.6569 17.4006
rfingers 7.12502
rthumb 41.4089 -7.38445
lclavicle -4.6118e-014 -5.4467e-014
lhumerus 18.6403 -60.8758 81.044
lradius 123.997
lwrist 80.2034
lhand -33.7725 32.719
lfingers 7.12502
lthumb -6.95996 62.5845
rfemur -43.8366 2.71732 19.9214
rtibia 32.7185
rfoot -9.53915 -12.773
rtoes -21.9106
lfemur -37.5193 -4.08019 -7.11728
ltibia 22.005
lfoot -5.64667 25.6503
ltoes -21.9227
3194
root -1.78484 17.5964 1.84488 -1372.55 92.6878 -1396.28
lowerback 23.8522 0.76926 -8.28739
upperback 16.3921 1.2602 -1.16124
thorax 5.03208 0.641165 3.21863
lowerneck -4.61642 -14.0533 -8.7814
upperneck 19.5054 -22.039 20.4501
head 10.4161 -9.46485 5.83184
rclavicle -4.6118e-014 -5.4467e-014
rhumerus 86.8945 20.7923 -3.529
rradius 33.4361
rwrist 1.31962
rhand 16.6569 17.4006
rfingers 7.12502
rthumb 41.4089 -7.38445
lclavicle -4.6118e-014 -5.4467e-014
lhumerus 18.6403 -60.8758 81.044
lradius 123.997
lwrist 80.2034
lhand -33.7725 32.719
lfingers 7.12502
lthumb -6.95996 62.5845
rfemur -43.6561 2.84418 19.954
rtibia 32.6206
rfoot -9.44177 -12.807
rtoes -22.3121
lfemur -37.4728 -3.87975 -7.15213
ltibia 22.207
lfoot -4.70544 25.372
ltoes -24.7605
3195
root -1.78028 17.5987 1.82639 -1371.28 92.7815 -1394.91
lowerback 23.8522 0.76926 -8.28739
upperback 16.3921 1.2602 -1.16124
thorax 5.03208 0.641165 3.21863
lowerneck -4.61642 -14.0533 -8.7814
upperneck 19.5054 -22.039 20.4501
head 10.4161 -9.46485 5.83184
rclavicle -4.6118e-014 -5.4467e-014
rhumerus 86.8945 20.7923 -3.529
rradius 33.4361
rwrist 1.31962
rhand 16.6569 17.4006
rfingers 7.12502
rthumb 41.4089 -7.38445
lclavicle -4.6118e-014 -5.4467e-014
lhumerus 18.6403 -60.8758 81.044
lradius 123.997
lwrist 80.2034
lhand -33.7725 32.719
lfingers 7.12502
lthumb -6.95996 62.5845
rfemur -43.4512 2.90197 20.0014
rtibia 32.5243
rfoot -9.30874 -12.8368
rtoes -22.7618
lfemur -37.3881 -3.78196 -7.15538
ltibia 22.3651
lfoot -4.08884 25.1424
ltoes -26.861
